<?xml version="1.0" encoding="UTF-8" standalone="no"?>
<!-- Created with Inkscape (http://www.inkscape.org/) -->

<svg
   width="210mm"
   height="297mm"
   viewBox="0 0 210 297"
   version="1.1"
   id="svg1327"
   xml:space="preserve"
   inkscape:version="1.2.2 (b0a8486541, 2022-12-01)"
   sodipodi:docname="drawing.svg"
   xmlns:inkscape="http://www.inkscape.org/namespaces/inkscape"
   xmlns:sodipodi="http://sodipodi.sourceforge.net/DTD/sodipodi-0.dtd"
   xmlns="http://www.w3.org/2000/svg"
   xmlns:svg="http://www.w3.org/2000/svg"><sodipodi:namedview
     id="namedview1329"
     pagecolor="#ffffff"
     bordercolor="#000000"
     borderopacity="0.25"
     inkscape:showpageshadow="2"
     inkscape:pageopacity="0.0"
     inkscape:pagecheckerboard="0"
     inkscape:deskcolor="#d1d1d1"
     inkscape:document-units="mm"
     showgrid="false"
     inkscape:zoom="0.56079086"
     inkscape:cx="211.30872"
     inkscape:cy="628.57658"
     inkscape:window-width="2048"
     inkscape:window-height="1071"
     inkscape:window-x="0"
     inkscape:window-y="0"
     inkscape:window-maximized="1"
     inkscape:current-layer="layer2" /><defs
     id="defs1324" /><g
     inkscape:label="Layer 1"
     inkscape:groupmode="layer"
     id="layer1" /><g
     inkscape:groupmode="layer"
     id="layer2"
     inkscape:label="Layer 2"><path
       style="fill:#782121;stroke:#000000;stroke-width:2.69586;stroke-dasharray:none;stroke-opacity:0.999427"
       d=""
       id="path7411"
       transform="scale(0.26458333)" /><path
       style="fill:#782121;stroke:#000000;stroke-width:2.69586;stroke-dasharray:none;stroke-opacity:0.999427"
       d=""
       id="path7423"
       transform="scale(0.26458333)" /><path
       style="fill:#1a1a1a;stroke:#000000;stroke-width:0.389306;stroke-dasharray:none;stroke-opacity:0.999427"
       d="M 88.68437,163.17109 46.523187,236.33008 162.56186,234.13073 129.56899,160.80938 90.320471,160.1457 Z"
       id="path7925"
       inkscape:export-filename="Logo_Unroll.png"
       inkscape:export-xdpi="200"
       inkscape:export-ydpi="200" /><path
       style="fill:#ffffff;stroke:#000000;stroke-width:0.0585814;stroke-dasharray:none;stroke-opacity:0.999427"
       d="m 106.56898,205.74309 -4.0252,17.35116 11.07842,-0.52161 -3.14989,-17.38969 -3.74712,-0.15749 z"
       id="path7927" /><rect
       style="fill:#ffffff;stroke:#000000;stroke-width:0.290761;stroke-dasharray:none;stroke-opacity:0.999427"
       id="rect7981"
       width="4.3418818"
       height="10.188201"
       x="106.61584"
       y="185.09607" /><rect
       style="fill:#ffffff;stroke:#000000;stroke-width:0.284502;stroke-dasharray:none;stroke-opacity:0.999427"
       id="rect7983"
       width="3.4417968"
       height="12.305076"
       x="107.49773"
       y="165.37666" /><path
       d="m 108.17193,130.78001 c 13.4164,0 22.36067,3.51382 22.36067,7.98596 v 1.59719 3.19438 c 1.76689,0 3.19438,1.42749 3.19438,3.19438 v 6.38876 c 0,1.76689 -1.42749,3.19438 -3.19438,3.19438 v 15.9719 c 0,1.76689 -1.42749,3.19438 -3.19438,3.19438 v 3.19439 c 0,1.76689 -1.42749,3.19438 -3.19438,3.19438 h -3.19438 c -1.76689,0 -3.19438,-1.42749 -3.19438,-3.19438 v -3.19439 H 98.588778 v 3.19439 c 0,1.76689 -1.42748,3.19438 -3.19438,3.19438 h -3.19438 c -1.76689,0 -3.19438,-1.42749 -3.19438,-3.19438 v -3.19439 c -1.76689,0 -3.19438,-1.42749 -3.19438,-3.19438 v -15.9719 c -1.76689,0 -3.19438,-1.42749 -3.19438,-3.19438 v -6.38876 c 0,-1.76689 1.42749,-3.19438 3.19438,-3.19438 v 0 -3.19438 0 -1.59719 c 0,-4.47214 8.94427,-7.98596 22.360672,-7.98596 z m -15.971912,15.97191 v 9.58314 c 0,1.76689 1.42749,3.19438 3.19438,3.19438 h 11.180342 v -15.9719 H 95.394398 c -1.76689,0 -3.19438,1.42749 -3.19438,3.19438 z m 17.569102,12.77752 h 11.18034 c 1.76689,0 3.19438,-1.42749 3.19438,-3.19438 v -9.58314 c 0,-1.76689 -1.42749,-3.19438 -3.19438,-3.19438 h -11.18034 z m -15.971912,11.18033 a 3.1943806,3.1943806 0 1 0 0,-6.38876 3.1943806,3.1943806 0 1 0 0,6.38876 z m 28.749442,0 a 3.1943806,3.1943806 0 1 0 0,-6.38876 3.1943806,3.1943806 0 1 0 0,6.38876 z m -4.79157,-31.9438 c 0,-0.87846 -0.71874,-1.59719 -1.59719,-1.59719 h -15.97191 c -0.878465,0 -1.597202,0.71873 -1.597202,1.59719 0,0.87845 0.718737,1.59719 1.597202,1.59719 h 15.97191 c 0.87845,0 1.59719,-0.71874 1.59719,-1.59719 z"
       id="path7585"
       style="fill:#d40000;stroke-width:0.0998243" /><path
       style="fill:#ffffff;stroke:#000000;stroke-width:2.69586;stroke-dasharray:none;stroke-opacity:0.999427"
       d="m 348.11998,641.84943 c -5.70177,-3.99368 -5.47353,-13.9842 0.40752,-17.83761 11.04373,-7.23614 22.82498,7.68343 13.46128,17.04713 -4.28433,4.28433 -8.53475,4.52659 -13.8688,0.79048 z"
       id="path8123"
       transform="scale(0.26458333)" /><path
       style="fill:#ffffff;stroke:#000000;stroke-width:2.69586;stroke-dasharray:none;stroke-opacity:0.999427"
       d=""
       id="path8125"
       transform="scale(0.26458333)" /><path
       style="fill:#ffffff;stroke:#000000;stroke-width:2.69586;stroke-dasharray:none;stroke-opacity:0.999427"
       d="m 455.41477,640.13766 c -5.08226,-5.08226 -4.59584,-10.3578 1.4359,-15.57327 4.67279,-4.04044 7.04909,-3.93349 12.78099,0.57522 5.64636,4.44143 6.10869,10.94272 1.13207,15.91934 -4.79862,4.79862 -9.9375,4.49017 -15.34896,-0.92129 z"
       id="path8127"
       transform="scale(0.26458333)" /><path
       style="fill:#ffffff;stroke:#000000;stroke-width:2.69586;stroke-dasharray:none;stroke-opacity:0.999427"
       d="m 415.48466,572.4059 v -29.42273 h 22.371 c 21.37434,0 22.56601,0.195 26.74794,4.37694 4.13567,4.13567 4.37694,5.49852 4.37694,24.72426 0,17.88473 -0.4473,20.91597 -3.69582,25.0458 -3.65213,4.64293 -3.96828,4.69847 -26.74794,4.69847 h -23.05212 z"
       id="path8129"
       transform="scale(0.26458333)" /><path
       style="fill:#ffffff;stroke:#000000;stroke-width:2.69586;stroke-dasharray:none;stroke-opacity:0.999427"
       d="m 353.0728,598.26224 c -3.18375,-3.18375 -3.56639,-5.94398 -3.56639,-25.72691 0,-21.81645 0.0729,-22.21791 4.69847,-25.85634 4.15371,-3.26731 7.1516,-3.69582 25.85634,-3.69582 h 21.15787 v 29.42273 29.42274 h -22.28995 c -19.91235,0 -22.67036,-0.38042 -25.85634,-3.5664 z"
       id="path8131"
       transform="scale(0.26458333)" /></g></svg>
